<?xml version="1.0" encoding="utf-8"?>
<!-- Generator: Adobe Illustrator 24.0.1, SVG Export Plug-In . SVG Version: 6.00 Build 0)  -->
<svg version="1.1" id="Layer_1" xmlns="http://www.w3.org/2000/svg" xmlns:xlink="http://www.w3.org/1999/xlink" x="0px" y="0px"
	 viewBox="0 0 22 24" style="enable-background:new 0 0 22 24;" xml:space="preserve">
<style type="text/css">
	.st0{fill:#2AA0D0;}
	.st1{fill:#35A5D2;}
	.st2{fill:#FFFFFF;}
</style>
<g>
	<path class="st0" d="M6.45,19.78h14.74c0.45,0,0.81-0.36,0.81-0.81V6.91L6.45,19.78z"/>
	<path class="st1" d="M22,5.03c0-0.45-0.36-0.81-0.81-0.81H0.81C0.36,4.22,0,4.58,0,5.03v13.94c0,0.45,0.36,0.81,0.81,0.81h5.64
		L22,6.91V5.03z"/>
</g>
<path class="st2" d="M4.52,9.91l-1.89,4.18h2.26l0.28-0.67h0.64l0.28,0.67h2.49v-0.51l0.22,0.51h1.29l0.22-0.52v0.52h5.18l0.63-0.65
	l0.59,0.65l2.66,0.01l-1.89-2.08l1.89-2.1h-2.62l-0.61,0.64l-0.57-0.64H9.94l-0.48,1.08L8.96,9.91H6.7v0.49L6.45,9.91
	C6.45,9.91,4.52,9.91,4.52,9.91z M4.96,10.5h1.1l1.25,2.83V10.5h1.21l0.97,2.03l0.89-2.03h1.2v3h-0.73l-0.01-2.35L9.78,13.5H9.13
	l-1.07-2.35v2.35h-1.5l-0.29-0.67H4.73L4.44,13.5H3.64C3.64,13.5,4.96,10.5,4.96,10.5z M12.25,10.5h2.97l0.91,0.98l0.94-0.98h0.91
	l-1.38,1.51l1.38,1.49h-0.95l-0.91-0.99l-0.94,0.99h-2.93L12.25,10.5L12.25,10.5z M5.5,11.01l-0.51,1.2H6L5.5,11.01z M12.98,11.12
	v0.55h1.62v0.61h-1.62v0.6h1.82L15.65,12l-0.81-0.88L12.98,11.12L12.98,11.12z"/>
</svg>
