<?xml version="1.0" encoding="utf-8"?>
<!-- Generator: Adobe Illustrator 24.0.1, SVG Export Plug-In . SVG Version: 6.00 Build 0)  -->
<svg version="1.1" id="Layer_1" xmlns="http://www.w3.org/2000/svg" xmlns:xlink="http://www.w3.org/1999/xlink" x="0px" y="0px"
	 viewBox="0 0 22 24" style="enable-background:new 0 0 22 24;" xml:space="preserve">
<style type="text/css">
	.st0{fill:#E0E0E0;}
	.st1{fill:#556180;}
</style>
<path class="st0" d="M21.13,19.73H0.87C0.39,19.73,0,19.34,0,18.87V5.11c0-0.48,0.39-0.87,0.87-0.87h20.26
	c0.48,0,0.87,0.39,0.87,0.87v13.76C22,19.34,21.61,19.73,21.13,19.73z"/>
<g>
	<rect id="XMLID_63_" y="6" class="st1" width="22" height="2.98"/>
	<path id="XMLID_62_" class="st1" d="M6.09,11.26l-3.55,0c-0.38,0.33-0.15,0.75,0.18,0.75l3.55,0C6.65,11.68,6.42,11.26,6.09,11.26"
		/>
	<path id="XMLID_61_" class="st1" d="M11.33,11.64c0-0.21-0.17-0.37-0.37-0.37l-3.55,0c-0.38,0.33-0.15,0.75,0.18,0.75h3.37
		C11.16,12.01,11.33,11.84,11.33,11.64"/>
	<path id="XMLID_60_" class="st1" d="M3.1,13.13l-0.55,0c-0.38,0.33-0.15,0.75,0.18,0.75l0.55,0C3.65,13.54,3.43,13.13,3.1,13.13"/>
	<path id="XMLID_59_" class="st1" d="M5.34,13.13l-0.93,0c-0.38,0.33-0.15,0.75,0.18,0.75l0.93,0C5.9,13.54,5.67,13.13,5.34,13.13"
		/>
	<path id="XMLID_58_" class="st1" d="M7.21,13.13l-0.55,0c-0.38,0.33-0.15,0.75,0.18,0.75l0.55,0C7.77,13.54,7.54,13.13,7.21,13.13"
		/>
	<path id="XMLID_57_" class="st1" d="M9.46,13.13l-0.93,0c-0.38,0.33-0.15,0.75,0.18,0.75l0.93,0C10.01,13.54,9.79,13.13,9.46,13.13
		"/>
	<path id="XMLID_56_" class="st1" d="M10.69,13.24c-0.07,0.07-0.11,0.17-0.11,0.26s0.04,0.19,0.11,0.26
		c0.07,0.07,0.16,0.11,0.27,0.11c0.1,0,0.19-0.04,0.27-0.11c0.07-0.07,0.11-0.17,0.11-0.26s-0.04-0.19-0.11-0.26
		C11.08,13.1,10.83,13.1,10.69,13.24"/>
	<rect id="XMLID_55_" x="13.95" y="14.24" class="st1" width="5.99" height="3.73"/>
</g>
</svg>
