<?xml version="1.0" encoding="utf-8"?>
<!-- Generator: Adobe Illustrator 24.0.1, SVG Export Plug-In . SVG Version: 6.00 Build 0)  -->
<svg version="1.1" id="Layer_1" xmlns="http://www.w3.org/2000/svg" xmlns:xlink="http://www.w3.org/1999/xlink" x="0px" y="0px"
	 viewBox="0 0 22 24" style="enable-background:new 0 0 22 24;" xml:space="preserve">
<style type="text/css">
	.st0{fill:#E0E0E0;}
	.st1{fill:#FDB62F;}
	.st2{fill:#F46B27;}
	.st3{fill:#556180;}
</style>
<path class="st0" d="M21.12,19.88H0.88C0.39,19.88,0,19.49,0,19V5.17C0,4.69,0.39,4.3,0.88,4.3h20.25C21.61,4.3,22,4.69,22,5.17V19
	C22,19.49,21.61,19.88,21.12,19.88z"/>
<g>
	<rect x="2.47" y="9.04" class="st1" width="3.25" height="3.25"/>
	<g>
		<rect x="2.47" y="10.26" class="st2" width="1.22" height="0.81"/>
		<rect x="4.5" y="10.26" class="st2" width="1.22" height="0.81"/>
	</g>
	<g>
		<rect x="2.06" y="15.54" class="st3" width="1.22" height="0.81"/>
		<rect x="4.09" y="15.54" class="st3" width="1.22" height="0.81"/>
		<rect x="6.12" y="15.54" class="st3" width="1.22" height="0.81"/>
		<rect x="8.16" y="15.54" class="st3" width="1.22" height="0.81"/>
		<rect x="10.19" y="15.54" class="st3" width="1.22" height="0.81"/>
		<rect x="2.06" y="13.92" class="st3" width="8.94" height="0.81"/>
		<rect x="11.81" y="13.92" class="st3" width="1.63" height="0.81"/>
		<rect x="12.22" y="15.54" class="st3" width="1.22" height="0.81"/>
		<rect x="2.06" y="6.6" class="st3" width="8.13" height="0.81"/>
		<rect x="16.28" y="6.6" class="st3" width="3.66" height="0.81"/>
		<rect x="17.91" y="8.22" class="st3" width="2.03" height="0.81"/>
	</g>
</g>
</svg>
