<?xml version="1.0" encoding="utf-8"?>
<!-- Generator: Adobe Illustrator 24.0.1, SVG Export Plug-In . SVG Version: 6.00 Build 0)  -->
<svg version="1.1" id="Layer_1" xmlns="http://www.w3.org/2000/svg" xmlns:xlink="http://www.w3.org/1999/xlink" x="0px" y="0px"
	 viewBox="0 0 22 24" style="enable-background:new 0 0 22 24;" xml:space="preserve">
<style type="text/css">
	.st0{fill:#0069AA;}
	.st1{fill:#0D71AE;}
	.st2{fill:#F9F9F9;}
</style>
<g>
	<path class="st0" d="M6.45,19.78h14.74c0.45,0,0.81-0.36,0.81-0.81V6.91L6.45,19.78z"/>
	<path class="st1" d="M22,5.03c0-0.45-0.36-0.81-0.81-0.81H0.81C0.36,4.22,0,4.58,0,5.03v13.94c0,0.45,0.36,0.81,0.81,0.81h5.64
		L22,6.91V5.03z"/>
</g>
<g>
	<path class="st2" d="M10.84,9.65v4.71c0.95-0.36,1.62-1.28,1.62-2.35C12.46,10.93,11.79,10.01,10.84,9.65z"/>
	<path class="st2" d="M11.98,7.67H9.93c-2.4,0-4.38,1.79-4.38,4.39c0,2.37,1.98,4.32,4.38,4.31h2.05c2.38,0.01,4.55-1.94,4.55-4.31
		C16.52,9.46,14.35,7.67,11.98,7.67z M9.94,15.99c-2.2,0-3.98-1.78-3.98-3.98c0-2.2,1.78-3.98,3.98-3.98c2.2,0,3.98,1.78,3.98,3.98
		C13.92,14.2,12.14,15.99,9.94,15.99z"/>
	<path class="st2" d="M7.42,12.01c0,1.07,0.67,1.99,1.62,2.35V9.65C8.09,10.02,7.42,10.93,7.42,12.01z"/>
</g>
</svg>
