<?xml version="1.0" encoding="utf-8"?>
<!-- Generator: Adobe Illustrator 24.0.1, SVG Export Plug-In . SVG Version: 6.00 Build 0)  -->
<svg version="1.1" id="Layer_1" xmlns="http://www.w3.org/2000/svg" xmlns:xlink="http://www.w3.org/1999/xlink" x="0px" y="0px"
	 viewBox="0 0 22 24" style="enable-background:new 0 0 22 24;" xml:space="preserve">
<style type="text/css">
	.st0{fill:#F7E8D7;}
	.st1{fill:#F48221;}
	.st2{fill:#201D1C;}
	.st3{fill:#F69B4D;}
</style>
<g>
	<path class="st0" d="M22,4.97c0-0.45-0.36-0.82-0.81-0.82H0.81C0.36,4.15,0,4.52,0,4.97v14.06c0,0.45,0.36,0.82,0.81,0.82h7.45
		c4.49-1.15,10.08-2.88,13.74-5.08V4.97z"/>
	<path class="st1" d="M22,19.03v-4.26c-3.65,2.2-9.24,3.93-13.74,5.08h12.92C21.64,19.85,22,19.48,22,19.03z"/>
</g>
<g>
	<g id="g16">
		<path id="path22" class="st2" d="M4.73,12.6c-0.15,0.13-0.34,0.19-0.64,0.19H3.96v-1.61h0.13c0.3,0,0.49,0.05,0.64,0.2
			c0.16,0.15,0.26,0.37,0.26,0.6C4.99,12.22,4.89,12.45,4.73,12.6z M4.18,10.78H3.49v2.43h0.69c0.36,0,0.63-0.09,0.86-0.28
			c0.27-0.23,0.44-0.58,0.44-0.93C5.47,11.27,4.94,10.78,4.18,10.78"/>
		<path id="path24" class="st2" d="M5.69,13.21h0.47v-2.43H5.69V13.21z"/>
		<path id="path26" class="st2" d="M7.31,11.71c-0.28-0.11-0.36-0.17-0.36-0.31c0-0.15,0.15-0.27,0.35-0.27
			c0.14,0,0.26,0.06,0.38,0.2L7.92,11c-0.2-0.18-0.44-0.27-0.71-0.27c-0.43,0-0.75,0.3-0.75,0.7c0,0.33,0.15,0.51,0.59,0.67
			c0.18,0.07,0.28,0.11,0.32,0.14c0.09,0.06,0.14,0.15,0.14,0.25c0,0.2-0.16,0.34-0.36,0.34c-0.22,0-0.4-0.11-0.51-0.32l-0.3,0.29
			c0.22,0.32,0.48,0.46,0.83,0.46c0.49,0,0.83-0.33,0.83-0.8C8,12.08,7.84,11.9,7.31,11.71"/>
		<path id="path28" class="st2" d="M8.15,11.99c0,0.71,0.56,1.27,1.27,1.27c0.2,0,0.38-0.04,0.59-0.14v-0.56
			c-0.19,0.19-0.35,0.27-0.57,0.27c-0.47,0-0.81-0.35-0.81-0.84c0-0.47,0.35-0.83,0.79-0.83c0.22,0,0.39,0.08,0.59,0.27v-0.56
			c-0.21-0.11-0.38-0.15-0.58-0.15C8.72,10.72,8.15,11.29,8.15,11.99"/>
		<path id="path30" class="st2" d="M13.74,12.41l-0.64-1.63h-0.51l1.02,2.49h0.25l1.04-2.49h-0.51L13.74,12.41"/>
		<path id="path32" class="st2" d="M15.11,13.21h1.33v-0.41h-0.86v-0.66h0.83v-0.41h-0.83v-0.54h0.86v-0.41h-1.33V13.21"/>
		<path id="path34" class="st2" d="M17.36,11.89h-0.14v-0.74h0.14c0.29,0,0.45,0.12,0.45,0.36C17.82,11.76,17.66,11.89,17.36,11.89z
			 M18.3,11.49c0-0.45-0.31-0.72-0.85-0.72h-0.7v2.43h0.47v-0.98h0.06l0.65,0.98h0.58l-0.76-1.02C18.11,12.11,18.3,11.86,18.3,11.49
			"/>
	</g>
	<path class="st1" d="M10.47,12.84c0.23,0.28,0.58,0.45,0.97,0.45c0.71,0,1.28-0.58,1.28-1.29c0,0,0,0,0,0c0-0.26-0.08-0.5-0.2-0.7
		L10.47,12.84z"/>
	<path class="st3" d="M11.44,10.71c-0.71,0-1.28,0.58-1.28,1.29c0,0,0,0,0,0c0,0.32,0.12,0.61,0.31,0.84l2.05-1.54
		C12.29,10.94,11.9,10.71,11.44,10.71z"/>
</g>
</svg>
