<?xml version="1.0" encoding="utf-8"?>
<!-- Generator: Adobe Illustrator 24.0.1, SVG Export Plug-In . SVG Version: 6.00 Build 0)  -->
<svg version="1.1" id="Layer_1" xmlns="http://www.w3.org/2000/svg" xmlns:xlink="http://www.w3.org/1999/xlink" x="0px" y="0px"
	 viewBox="0 0 22 24" style="enable-background:new 0 0 22 24;" xml:space="preserve">
<style type="text/css">
	.st0{fill:#F7E8D7;}
	.st1{fill:#556180;}
</style>
<path class="st0" d="M21.19,4.15H0.81C0.36,4.15,0,4.52,0,4.97v14.06c0,0.45,0.36,0.82,0.81,0.82h7.45h12.92
	c0.45,0,0.81-0.37,0.81-0.82v-4.26v-9.8C22,4.52,21.64,4.15,21.19,4.15z"/>
<g>
	<rect id="XMLID_27_" y="6.05" class="st1" width="22" height="2.99"/>
	<path id="XMLID_26_" class="st1" d="M6.09,11.33H2.72c-0.21,0-0.37,0.17-0.37,0.37s0.17,0.37,0.37,0.37h3.37
		c0.21,0,0.37-0.17,0.37-0.37S6.3,11.33,6.09,11.33"/>
	<path id="XMLID_25_" class="st1" d="M11.33,11.71c0-0.21-0.17-0.37-0.37-0.37H7.59c-0.21,0-0.37,0.17-0.37,0.37
		s0.17,0.37,0.37,0.37h3.37C11.16,12.08,11.33,11.91,11.33,11.71"/>
	<path id="XMLID_24_" class="st1" d="M3.1,13.2H2.72c-0.21,0-0.37,0.17-0.37,0.37c0,0.21,0.17,0.37,0.37,0.37H3.1
		c0.21,0,0.37-0.17,0.37-0.37C3.47,13.37,3.31,13.2,3.1,13.2"/>
	<path id="XMLID_23_" class="st1" d="M5.34,13.2H4.59c-0.21,0-0.37,0.17-0.37,0.37c0,0.21,0.17,0.37,0.37,0.37h0.75
		c0.21,0,0.37-0.17,0.37-0.37C5.72,13.37,5.55,13.2,5.34,13.2"/>
	<path id="XMLID_22_" class="st1" d="M7.21,13.2H6.84c-0.21,0-0.37,0.17-0.37,0.37c0,0.21,0.17,0.37,0.37,0.37h0.37
		c0.21,0,0.37-0.17,0.37-0.37C7.59,13.37,7.42,13.2,7.21,13.2"/>
	<path id="XMLID_21_" class="st1" d="M9.46,13.2H8.71c-0.21,0-0.37,0.17-0.37,0.37c0,0.21,0.17,0.37,0.37,0.37h0.75
		c0.21,0,0.37-0.17,0.37-0.37C9.83,13.37,9.67,13.2,9.46,13.2"/>
	<path id="XMLID_20_" class="st1" d="M10.69,13.31c-0.07,0.07-0.11,0.17-0.11,0.27s0.04,0.19,0.11,0.27
		c0.07,0.07,0.16,0.11,0.27,0.11c0.1,0,0.19-0.04,0.27-0.11c0.07-0.07,0.11-0.17,0.11-0.27s-0.04-0.19-0.11-0.27
		C11.08,13.17,10.83,13.17,10.69,13.31"/>
	<rect id="XMLID_19_" x="13.95" y="14.33" class="st1" width="5.99" height="3.74"/>
</g>
</svg>
