<?xml version="1.0" encoding="utf-8"?>
<!-- Generator: Adobe Illustrator 24.0.1, SVG Export Plug-In . SVG Version: 6.00 Build 0)  -->
<svg version="1.1" id="Layer_1" xmlns="http://www.w3.org/2000/svg" xmlns:xlink="http://www.w3.org/1999/xlink" x="0px" y="0px"
	 viewBox="0 0 22 24" style="enable-background:new 0 0 22 24;" xml:space="preserve">
<style type="text/css">
	.st0{fill:#3A3A3A;}
	.st1{fill:#FFFFFF;}
</style>
<path class="st0" d="M21.13,19.74H0.87C0.39,19.74,0,19.35,0,18.89V5.13c0-0.48,0.39-0.87,0.87-0.87h20.26
	c0.48,0,0.87,0.39,0.87,0.87v13.76C22,19.35,21.61,19.74,21.13,19.74z"/>
<g>
	<rect id="XMLID_63_" x="0" y="6.02" class="st1" width="22" height="2.98"/>
	<path id="XMLID_62_" class="st1" d="M6.09,11.28H2.54c-0.38,0.33-0.15,0.75,0.18,0.75h3.55C6.65,11.7,6.42,11.28,6.09,11.28"/>
	<path id="XMLID_61_" class="st1" d="M11.33,11.66c0-0.21-0.17-0.37-0.37-0.37H7.41c-0.38,0.33-0.15,0.75,0.18,0.75h3.37
		C11.16,12.03,11.33,11.86,11.33,11.66"/>
	<path id="XMLID_60_" class="st1" d="M3.1,13.15H2.55C2.17,13.48,2.4,13.9,2.73,13.9h0.55C3.65,13.56,3.43,13.15,3.1,13.15"/>
	<path id="XMLID_59_" class="st1" d="M5.34,13.15H4.41c-0.38,0.33-0.15,0.75,0.18,0.75h0.93C5.9,13.56,5.67,13.15,5.34,13.15"/>
	<path id="XMLID_58_" class="st1" d="M7.21,13.15H6.66c-0.38,0.33-0.15,0.75,0.18,0.75h0.55C7.77,13.56,7.54,13.15,7.21,13.15"/>
	<path id="XMLID_57_" class="st1" d="M9.46,13.15H8.53c-0.38,0.33-0.15,0.75,0.18,0.75h0.93C10.01,13.56,9.79,13.15,9.46,13.15"/>
	<path id="XMLID_56_" class="st1" d="M10.69,13.26c-0.07,0.07-0.11,0.17-0.11,0.26s0.04,0.19,0.11,0.26
		c0.07,0.07,0.16,0.11,0.27,0.11c0.1,0,0.19-0.04,0.27-0.11c0.07-0.07,0.11-0.17,0.11-0.26s-0.04-0.19-0.11-0.26
		C11.08,13.12,10.83,13.12,10.69,13.26"/>
	<rect id="XMLID_55_" x="13.95" y="14.26" class="st1" width="5.99" height="3.73"/>
</g>
</svg>
