<?xml version="1.0" encoding="utf-8"?>
<!-- Generator: Adobe Illustrator 24.0.1, SVG Export Plug-In . SVG Version: 6.00 Build 0)  -->
<svg version="1.1" id="Layer_1" xmlns="http://www.w3.org/2000/svg" xmlns:xlink="http://www.w3.org/1999/xlink" x="0px" y="0px"
	 viewBox="0 0 22 24" style="enable-background:new 0 0 22 24;" xml:space="preserve">
<style type="text/css">
	.st0{fill:#3A3A3A;}
	.st1{fill:url(#path6338_1_);}
	.st2{fill:url(#path6349_1_);}
	.st3{fill:url(#path6360_1_);}
	.st4{fill:url(#path6371_1_);}
	.st5{fill:url(#path6384_1_);}
</style>
<g>
	<path class="st0" d="M21,19.88H1c-0.55,0-1-0.45-1-1V5.25c0-0.55,0.45-1,1-1h20c0.55,0,1,0.45,1,1v13.62
		C22,19.43,21.55,19.88,21,19.88z M1,4.5c-0.42,0-0.75,0.34-0.75,0.75v13.62c0,0.42,0.34,0.75,0.75,0.75h20
		c0.42,0,0.75-0.34,0.75-0.75V5.25c0-0.42-0.34-0.75-0.75-0.75H1z"/>
</g>
<g>
	<g id="g6327">
		
			<linearGradient id="path6338_1_" gradientUnits="userSpaceOnUse" x1="25.9928" y1="24.8607" x2="27.9294" y2="24.8607" gradientTransform="matrix(2.0492 0 0 2.0492 -39.7573 -38.2745)">
			<stop  offset="0" style="stop-color:#007940"/>
			<stop  offset="0.2285" style="stop-color:#00873F"/>
			<stop  offset="0.7433" style="stop-color:#40A737"/>
			<stop  offset="1" style="stop-color:#5CB531"/>
		</linearGradient>
		<path id="path6338" class="st1" d="M14.29,13.1h0.93c0.03,0,0.09-0.01,0.11-0.01c0.18-0.04,0.33-0.19,0.33-0.42
			c0-0.21-0.15-0.37-0.33-0.42c-0.03-0.01-0.08-0.01-0.11-0.01h-0.93V13.1L14.29,13.1z"/>
		
			<linearGradient id="path6349_1_" gradientUnits="userSpaceOnUse" x1="25.9927" y1="24.5679" x2="27.9277" y2="24.5679" gradientTransform="matrix(2.0492 0 0 2.0492 -39.7573 -38.2745)">
			<stop  offset="0" style="stop-color:#007940"/>
			<stop  offset="0.2285" style="stop-color:#00873F"/>
			<stop  offset="0.7433" style="stop-color:#40A737"/>
			<stop  offset="1" style="stop-color:#5CB531"/>
		</linearGradient>
		<path id="path6349" class="st2" d="M15.12,7.25c-0.88,0-1.61,0.72-1.61,1.61v1.67h2.27c0.05,0,0.11,0,0.16,0.01
			c0.51,0.03,0.89,0.29,0.89,0.75c0,0.36-0.26,0.67-0.73,0.73v0.02c0.52,0.04,0.92,0.33,0.92,0.78c0,0.49-0.44,0.8-1.02,0.8h-2.5
			v3.27h2.36c0.88,0,1.61-0.72,1.61-1.61V7.25H15.12L15.12,7.25z"/>
		
			<linearGradient id="path6360_1_" gradientUnits="userSpaceOnUse" x1="25.9927" y1="24.236" x2="27.9294" y2="24.236" gradientTransform="matrix(2.0492 0 0 2.0492 -39.7573 -38.2745)">
			<stop  offset="0" style="stop-color:#007940"/>
			<stop  offset="0.2285" style="stop-color:#00873F"/>
			<stop  offset="0.7433" style="stop-color:#40A737"/>
			<stop  offset="1" style="stop-color:#5CB531"/>
		</linearGradient>
		<path id="path6360" class="st3" d="M15.55,11.39c0-0.21-0.15-0.35-0.33-0.38c-0.02,0-0.06-0.01-0.09-0.01h-0.84v0.78h0.84
			c0.03,0,0.08,0,0.09-0.01C15.4,11.74,15.55,11.6,15.55,11.39z"/>
	</g>
	
		<linearGradient id="path6371_1_" gradientUnits="userSpaceOnUse" x1="21.6559" y1="24.5679" x2="23.6225" y2="24.5679" gradientTransform="matrix(2.0492 0 0 2.0492 -39.7573 -38.2745)">
		<stop  offset="0" style="stop-color:#1F286F"/>
		<stop  offset="0.4751" style="stop-color:#004E94"/>
		<stop  offset="0.8261" style="stop-color:#0066B1"/>
		<stop  offset="1" style="stop-color:#006FBC"/>
	</linearGradient>
	<path id="path6371" class="st4" d="M6.23,7.25c-0.88,0-1.61,0.72-1.61,1.61v3.97c0.45,0.22,0.92,0.36,1.39,0.36
		c0.56,0,0.86-0.34,0.86-0.79v-1.87h1.38v1.86c0,0.72-0.45,1.32-1.98,1.32c-0.93,0-1.65-0.2-1.65-0.2v3.38h2.36
		c0.88,0,1.61-0.72,1.61-1.61V7.25C8.58,7.25,6.23,7.25,6.23,7.25z"/>
	
		<linearGradient id="path6384_1_" gradientUnits="userSpaceOnUse" x1="23.8146" y1="24.5679" x2="25.7247" y2="24.5679" gradientTransform="matrix(2.0492 0 0 2.0492 -39.7573 -38.2745)">
		<stop  offset="0" style="stop-color:#6C2C2F"/>
		<stop  offset="0.1735" style="stop-color:#882730"/>
		<stop  offset="0.5731" style="stop-color:#BE1833"/>
		<stop  offset="0.8585" style="stop-color:#DC0436"/>
		<stop  offset="1" style="stop-color:#E60039"/>
	</linearGradient>
	<path id="path6384" class="st5" d="M10.67,7.25c-0.88,0-1.61,0.72-1.61,1.61v2.1c0.41-0.34,1.11-0.57,2.25-0.51
		c0.61,0.03,1.26,0.19,1.26,0.19v0.68c-0.33-0.17-0.72-0.32-1.22-0.35c-0.87-0.06-1.39,0.36-1.39,1.1c0,0.75,0.52,1.17,1.39,1.1
		c0.5-0.04,0.89-0.19,1.22-0.35v0.68c0,0-0.64,0.17-1.26,0.19c-1.14,0.05-1.85-0.17-2.25-0.51v3.71h2.36c0.88,0,1.61-0.72,1.61-1.61
		V7.25H10.67z"/>
</g>
</svg>
