<?xml version="1.0" encoding="utf-8"?>
<!-- Generator: Adobe Illustrator 24.0.1, SVG Export Plug-In . SVG Version: 6.00 Build 0)  -->
<svg version="1.1" id="Layer_1" xmlns="http://www.w3.org/2000/svg" xmlns:xlink="http://www.w3.org/1999/xlink" x="0px" y="0px"
	 viewBox="0 0 22 24" style="enable-background:new 0 0 22 24;" xml:space="preserve">
<style type="text/css">
	.st0{fill-rule:evenodd;clip-rule:evenodd;fill:#1B3771;}
	.st1{fill-rule:evenodd;clip-rule:evenodd;fill:#E9B040;}
	.st2{fill-rule:evenodd;clip-rule:evenodd;fill:#CC2131;}
	.st3{fill-rule:evenodd;clip-rule:evenodd;fill:#FFFFFF;}
</style>
<g>
	<path class="st0" d="M0,19.12h22V5.14H0V19.12L0,19.12z"/>
	<path class="st1" d="M11.02,16.6c1.06,0.97,2.49,1.56,4.03,1.56c3.33,0,6.02-2.7,6.02-6.05c0-3.33-2.69-6.05-6.02-6.05
		c-1.55,0-2.97,0.59-4.03,1.56c-1.22,1.11-1.98,2.7-1.98,4.48C9.04,13.9,9.8,15.5,11.02,16.6L11.02,16.6z"/>
	<path class="st1" d="M20.27,15.48c0-0.11,0.08-0.19,0.2-0.19c0.11,0,0.19,0.08,0.19,0.19s-0.08,0.2-0.19,0.2
		C20.36,15.69,20.27,15.6,20.27,15.48C20.27,15.49,20.27,15.48,20.27,15.48z M20.47,15.64c0.07,0,0.14-0.07,0.14-0.15
		s-0.07-0.14-0.14-0.14c-0.08,0-0.15,0.06-0.15,0.14S20.39,15.64,20.47,15.64z M20.43,15.58H20.4V15.4h0.07c0.01,0,0.04,0,0.05,0.01
		c0.01,0.01,0.02,0.02,0.02,0.04c0,0.02-0.01,0.05-0.04,0.05l0.04,0.08h-0.05l-0.02-0.07h-0.04L20.43,15.58L20.43,15.58z
		 M20.43,15.47h0.05c0.01,0,0.01-0.01,0.01-0.02c0,0,0-0.01-0.01-0.01h-0.05V15.47L20.43,15.47z"/>
	<path class="st2" d="M12.97,11.48c-0.02-0.22-0.06-0.43-0.11-0.64H9.18c0.05-0.22,0.11-0.43,0.18-0.64h3.33
		c-0.07-0.22-0.15-0.43-0.25-0.64H9.6c0.11-0.22,0.23-0.43,0.35-0.64h2.12c-0.13-0.23-0.29-0.44-0.46-0.64h-1.2
		c0.18-0.23,0.39-0.44,0.6-0.64C9.96,6.66,8.54,6.07,6.98,6.07c-3.33,0-6.02,2.71-6.02,6.05c0,3.34,2.69,6.05,6.02,6.05
		c1.56,0,2.97-0.59,4.03-1.56c0.21-0.2,0.42-0.41,0.61-0.64h-1.22c-0.17-0.2-0.32-0.42-0.46-0.64h2.12
		c0.13-0.21,0.25-0.42,0.35-0.64H9.6c-0.1-0.21-0.18-0.42-0.25-0.64h3.33c0.07-0.21,0.13-0.42,0.18-0.64
		c0.05-0.21,0.08-0.43,0.11-0.64C13.01,12.33,13.01,11.9,12.97,11.48L12.97,11.48z"/>
	<path class="st3" d="M20.27,13.52c0-0.11,0.08-0.19,0.2-0.19c0.11,0,0.19,0.08,0.19,0.19c0,0.11-0.08,0.2-0.19,0.2
		C20.36,13.72,20.27,13.63,20.27,13.52C20.27,13.52,20.27,13.52,20.27,13.52z M20.47,13.67c0.07,0,0.14-0.07,0.14-0.15
		c0-0.08-0.07-0.14-0.14-0.14c-0.08,0-0.15,0.06-0.15,0.14C20.31,13.6,20.39,13.67,20.47,13.67z M20.43,13.61H20.4v-0.18h0.07
		c0.01,0,0.04,0,0.05,0.01c0.01,0.01,0.02,0.02,0.02,0.04c0,0.02-0.01,0.05-0.04,0.05l0.04,0.08h-0.05l-0.02-0.07h-0.04L20.43,13.61
		L20.43,13.61z M20.43,13.5h0.05c0.01,0,0.01-0.01,0.01-0.02c0,0,0-0.01-0.01-0.01h-0.05V13.5L20.43,13.5z"/>
	<path class="st0" d="M8.98,13.86c-0.2,0.06-0.34,0.08-0.5,0.08c-0.31,0-0.5-0.19-0.5-0.55c0-0.07,0.01-0.14,0.02-0.23l0.04-0.24
		l0.04-0.2l0.28-1.71h0.63l-0.07,0.38h0.39l-0.09,0.63H8.82l-0.18,1.02c0,0.04-0.01,0.07-0.01,0.09c0,0.13,0.07,0.19,0.22,0.19
		c0.08,0,0.13-0.01,0.2-0.02L8.98,13.86L8.98,13.86z M11,13.84c-0.22,0.07-0.44,0.11-0.67,0.11c-0.7,0-1.11-0.38-1.11-1.11
		c0-0.85,0.48-1.49,1.14-1.49c0.53,0,0.87,0.36,0.87,0.91c0,0.18-0.02,0.36-0.08,0.62h-1.3v0.07c0,0.3,0.19,0.44,0.57,0.44
		c0.24,0,0.45-0.05,0.68-0.15L11,13.84L11,13.84z M10.61,12.35v-0.12c0-0.2-0.12-0.32-0.31-0.32c-0.21,0-0.35,0.15-0.41,0.44
		L10.61,12.35L10.61,12.35L10.61,12.35z M3.99,13.9H3.34l0.38-2.36L2.88,13.9H2.43l-0.05-2.35l-0.4,2.35H1.36l0.51-3.07H2.8
		l0.04,1.9l0.63-1.9H4.5L3.99,13.9z M5.56,12.78c-0.07,0-0.08-0.01-0.13-0.01c-0.37,0-0.55,0.14-0.55,0.38
		c0,0.17,0.09,0.26,0.24,0.26C5.43,13.41,5.54,13.15,5.56,12.78L5.56,12.78z M6.08,13.9H5.51l0.01-0.26
		c-0.14,0.2-0.33,0.31-0.68,0.31c-0.32,0-0.58-0.28-0.58-0.69c0-0.12,0.02-0.23,0.05-0.32c0.11-0.39,0.5-0.63,1.09-0.64
		c0.07,0,0.19,0,0.28,0.01c0.02-0.08,0.02-0.12,0.02-0.17c0-0.17-0.13-0.21-0.44-0.21c-0.19,0-0.39,0.04-0.54,0.07l-0.08,0.04H4.59
		l0.09-0.56c0.31-0.09,0.52-0.13,0.75-0.13c0.57,0,0.86,0.25,0.86,0.74c0,0.12,0.01,0.21-0.04,0.49l-0.13,0.89l-0.02,0.15
		l-0.02,0.13v0.08L6.08,13.9L6.08,13.9z M14.13,11.43c0.18,0,0.34,0.05,0.58,0.17l0.11-0.68c-0.06-0.02-0.07-0.02-0.15-0.06
		l-0.27-0.06c-0.08-0.02-0.18-0.04-0.29-0.04c-0.32,0-0.51,0-0.71,0.13c-0.11,0.06-0.24,0.15-0.39,0.32l-0.07-0.02l-0.67,0.47
		l0.04-0.26h-0.7l-0.39,2.49h0.65l0.24-1.34c0,0,0.09-0.19,0.14-0.25c0.12-0.15,0.22-0.15,0.35-0.15h0.05
		c-0.01,0.14-0.02,0.31-0.02,0.47c0,0.82,0.46,1.33,1.17,1.33c0.18,0,0.33-0.02,0.57-0.09l0.12-0.7c-0.21,0.11-0.39,0.15-0.55,0.15
		c-0.38,0-0.6-0.27-0.6-0.75C13.31,11.9,13.64,11.43,14.13,11.43L14.13,11.43z M19.64,10.83L19.5,11.7
		c-0.15-0.24-0.34-0.34-0.59-0.34c-0.34,0-0.66,0.19-0.86,0.56l-0.41-0.25l0.04-0.26h-0.7l-0.4,2.49h0.66l0.21-1.34
		c0,0,0.17-0.19,0.21-0.25c0.09-0.12,0.2-0.15,0.28-0.15c-0.08,0.24-0.12,0.49-0.12,0.74c0,0.63,0.33,1.04,0.8,1.04
		c0.24,0,0.42-0.08,0.6-0.28l-0.04,0.25h0.63l0.5-3.07L19.64,10.83L19.64,10.83L19.64,10.83z M18.85,13.3
		c-0.22,0-0.33-0.15-0.33-0.49c0-0.49,0.2-0.84,0.51-0.84c0.22,0,0.34,0.18,0.34,0.5C19.37,12.96,19.16,13.3,18.85,13.3L18.85,13.3z
		 M15.84,12.78c-0.07,0-0.08-0.01-0.13-0.01c-0.37,0-0.55,0.14-0.55,0.38c0,0.17,0.09,0.26,0.24,0.26
		C15.71,13.41,15.83,13.15,15.84,12.78L15.84,12.78z M16.36,13.9H15.8l0.01-0.26c-0.14,0.2-0.33,0.31-0.68,0.31
		c-0.32,0-0.6-0.27-0.6-0.69c0.01-0.59,0.45-0.96,1.16-0.96c0.07,0,0.19,0,0.28,0.01c0.02-0.08,0.02-0.12,0.02-0.17
		c0-0.17-0.13-0.21-0.44-0.21c-0.19,0-0.4,0.04-0.54,0.07l-0.09,0.04h-0.04l0.09-0.56c0.31-0.09,0.52-0.13,0.75-0.13
		c0.57,0,0.86,0.25,0.86,0.74c0,0.12,0.01,0.21-0.04,0.49l-0.13,0.89l-0.02,0.15l-0.02,0.13l-0.01,0.08V13.9z M7.43,11.94
		c0.13,0,0.31,0.01,0.5,0.04l0.09-0.58c-0.19-0.02-0.44-0.05-0.59-0.05c-0.72,0-0.97,0.39-0.97,0.85c0,0.3,0.14,0.52,0.48,0.68
		c0.27,0.13,0.32,0.15,0.32,0.26c0,0.15-0.14,0.25-0.4,0.25c-0.19,0-0.37-0.04-0.58-0.09l-0.07,0.57h0.01l0.12,0.02
		c0.04,0.01,0.09,0.02,0.17,0.02c0.17,0.02,0.29,0.02,0.38,0.02c0.72,0,1.03-0.27,1.03-0.83c0-0.34-0.17-0.55-0.5-0.69
		c-0.27-0.13-0.31-0.14-0.31-0.26C7.11,12.03,7.23,11.94,7.43,11.94L7.43,11.94z"/>
	<path class="st3" d="M14.99,10.73l-0.11,0.66c-0.24-0.12-0.4-0.17-0.58-0.17c-0.5,0-0.84,0.47-0.84,1.15
		c0,0.46,0.24,0.75,0.61,0.75c0.17,0,0.34-0.05,0.55-0.15l-0.12,0.7c-0.24,0.06-0.39,0.08-0.58,0.08c-0.7,0-1.13-0.5-1.13-1.32
		c0-1.1,0.6-1.86,1.46-1.86c0.12,0,0.21,0.01,0.3,0.02l0.27,0.07C14.92,10.71,14.94,10.71,14.99,10.73L14.99,10.73z M12.91,11.19
		c-0.02-0.01-0.05-0.01-0.07-0.01c-0.21,0-0.33,0.11-0.53,0.4l0.06-0.38h-0.6l-0.39,2.5h0.65c0.24-1.53,0.29-1.79,0.61-1.79h0.05
		c0.06-0.3,0.13-0.52,0.25-0.72L12.91,11.19L12.91,11.19L12.91,11.19z M9.14,13.67c-0.18,0.06-0.32,0.08-0.47,0.08
		c-0.33,0-0.52-0.19-0.52-0.55c0-0.07,0.01-0.14,0.02-0.23l0.04-0.25l0.04-0.19l0.28-1.71h0.65L9.11,11.2h0.33l-0.09,0.62H9.01
		l-0.18,1.03c0,0.05-0.01,0.08-0.01,0.11c0,0.13,0.07,0.19,0.22,0.19c0.08,0,0.13-0.01,0.18-0.02L9.14,13.67L9.14,13.67z M6.63,12
		c0,0.31,0.15,0.53,0.5,0.69c0.27,0.13,0.31,0.17,0.31,0.28c0,0.15-0.12,0.23-0.38,0.23c-0.19,0-0.37-0.04-0.58-0.11l-0.09,0.58
		h0.04l0.12,0.02c0.05,0.02,0.11,0.02,0.17,0.02c0.15,0.01,0.28,0.02,0.37,0.02c0.68,0,1-0.26,1-0.83c0-0.34-0.13-0.55-0.46-0.7
		c-0.27-0.12-0.31-0.15-0.31-0.26c0-0.14,0.11-0.21,0.32-0.21c0.13,0,0.31,0.02,0.47,0.05l0.09-0.58c-0.17-0.02-0.42-0.05-0.58-0.05
		C6.88,11.16,6.63,11.54,6.63,12L6.63,12z M19.98,13.71h-0.63l0.04-0.25c-0.18,0.19-0.37,0.27-0.6,0.27c-0.47,0-0.79-0.4-0.79-1.03
		c0-0.83,0.48-1.53,1.06-1.53c0.26,0,0.45,0.11,0.63,0.34l0.14-0.88h0.65L19.98,13.71L19.98,13.71z M19.02,13.11
		c0.31,0,0.52-0.34,0.52-0.84c0-0.31-0.12-0.49-0.34-0.49c-0.29,0-0.51,0.34-0.51,0.84C18.69,12.95,18.79,13.11,19.02,13.11z
		 M11.14,13.65c-0.22,0.07-0.44,0.11-0.67,0.11c-0.73,0-1.11-0.39-1.11-1.11c0-0.87,0.48-1.49,1.14-1.49c0.53,0,0.87,0.36,0.87,0.91
		c0,0.18-0.02,0.36-0.07,0.62H10c-0.01,0.04-0.01,0.05-0.01,0.07c0,0.28,0.19,0.44,0.58,0.44c0.22,0,0.44-0.05,0.67-0.15
		L11.14,13.65z M10.77,12.16v-0.13c0-0.2-0.11-0.32-0.31-0.32c-0.2,0-0.35,0.17-0.41,0.45H10.77L10.77,12.16z M4.15,13.71H3.5
		l0.38-2.36l-0.84,2.36H2.6l-0.05-2.35l-0.4,2.35h-0.6l0.51-3.07h0.93l0.04,1.9l0.63-1.9h1.01L4.15,13.71L4.15,13.71z M5.77,12.59
		c-0.07-0.01-0.11-0.01-0.15-0.01c-0.37,0-0.55,0.13-0.55,0.38c0,0.15,0.09,0.26,0.24,0.26C5.57,13.22,5.76,12.96,5.77,12.59
		L5.77,12.59z M6.24,13.71H5.7l0.01-0.26c-0.17,0.2-0.38,0.3-0.68,0.3c-0.35,0-0.59-0.27-0.59-0.68c0-0.6,0.41-0.96,1.14-0.96
		c0.07,0,0.17,0,0.26,0.01c0.02-0.07,0.02-0.11,0.02-0.15c0-0.17-0.11-0.23-0.41-0.23c-0.19,0-0.4,0.02-0.54,0.07l-0.09,0.02
		l-0.06,0.01l0.09-0.56c0.33-0.09,0.54-0.13,0.78-0.13c0.57,0,0.86,0.25,0.86,0.72c0,0.13-0.01,0.23-0.06,0.5L6.3,13.27l-0.02,0.15
		l-0.01,0.13l-0.01,0.08L6.24,13.71L6.24,13.71z M16.06,12.59c-0.07-0.01-0.11-0.01-0.15-0.01c-0.37,0-0.55,0.13-0.55,0.38
		c0,0.15,0.09,0.26,0.24,0.26C15.84,13.22,16.04,12.96,16.06,12.59L16.06,12.59z M16.53,13.71h-0.54L16,13.44
		c-0.17,0.2-0.39,0.3-0.68,0.3c-0.35,0-0.6-0.27-0.6-0.68c0-0.6,0.42-0.96,1.16-0.96c0.07,0,0.17,0,0.26,0.01
		c0.02-0.07,0.02-0.11,0.02-0.15c0-0.17-0.11-0.23-0.41-0.23c-0.19,0-0.4,0.02-0.54,0.07l-0.09,0.02l-0.06,0.01l0.09-0.56
		c0.33-0.09,0.54-0.13,0.78-0.13c0.57,0,0.86,0.25,0.86,0.72c0,0.13-0.01,0.23-0.06,0.5l-0.13,0.89l-0.02,0.15l-0.02,0.13
		l-0.01,0.08L16.53,13.71L16.53,13.71L16.53,13.71z M18.27,11.19c-0.01-0.01-0.04-0.01-0.06-0.01c-0.21,0-0.34,0.11-0.54,0.4
		l0.06-0.38h-0.59l-0.4,2.5h0.66c0.22-1.53,0.3-1.79,0.6-1.79h0.05c0.06-0.3,0.14-0.52,0.25-0.72L18.27,11.19L18.27,11.19
		L18.27,11.19z"/>
</g>
</svg>
