<?xml version="1.0" encoding="utf-8"?>
<!-- Generator: Adobe Illustrator 24.0.1, SVG Export Plug-In . SVG Version: 6.00 Build 0)  -->
<svg version="1.1" id="Layer_1" xmlns="http://www.w3.org/2000/svg" xmlns:xlink="http://www.w3.org/1999/xlink" x="0px" y="0px"
	 viewBox="0 0 22 24" style="enable-background:new 0 0 22 24;" xml:space="preserve">
<style type="text/css">
	.st0{fill:#4361C3;}
	.st1{fill:#4D69C6;}
	.st2{fill:#E0E0E0;}
</style>
<g>
	<path class="st0" d="M6.45,19.78h14.74c0.45,0,0.81-0.36,0.81-0.81V6.91L6.45,19.78z"/>
	<path class="st1" d="M22,5.03c0-0.45-0.36-0.81-0.81-0.81H0.81C0.36,4.22,0,4.58,0,5.03v13.94c0,0.45,0.36,0.81,0.81,0.81h5.64
		L22,6.91V5.03z"/>
</g>
<g>
	<rect id="XMLID_18_" y="6.71" class="st2" width="22" height="2.87"/>
	<path id="XMLID_17_" class="st2" d="M6.09,11.78H2.72c-0.21,0-0.37,0.16-0.37,0.36c0,0.2,0.17,0.36,0.37,0.36h3.37
		c0.21,0,0.37-0.16,0.37-0.36C6.47,11.94,6.3,11.78,6.09,11.78"/>
	<path id="XMLID_16_" class="st2" d="M11.33,12.14c0-0.2-0.17-0.36-0.37-0.36H7.59c-0.21,0-0.37,0.16-0.37,0.36
		c0,0.2,0.17,0.36,0.37,0.36h3.37C11.16,12.5,11.33,12.34,11.33,12.14"/>
	<path id="XMLID_15_" class="st2" d="M3.1,13.57H2.72c-0.21,0-0.37,0.16-0.37,0.36s0.17,0.36,0.37,0.36H3.1
		c0.21,0,0.37-0.16,0.37-0.36S3.31,13.57,3.1,13.57"/>
	<path id="XMLID_14_" class="st2" d="M5.34,13.57H4.59c-0.21,0-0.37,0.16-0.37,0.36s0.17,0.36,0.37,0.36h0.75
		c0.21,0,0.37-0.16,0.37-0.36S5.55,13.57,5.34,13.57"/>
	<path id="XMLID_13_" class="st2" d="M7.21,13.57H6.84c-0.21,0-0.37,0.16-0.37,0.36s0.17,0.36,0.37,0.36h0.37
		c0.21,0,0.37-0.16,0.37-0.36S7.42,13.57,7.21,13.57"/>
	<path id="XMLID_12_" class="st2" d="M9.46,13.57H8.71c-0.21,0-0.37,0.16-0.37,0.36s0.17,0.36,0.37,0.36h0.75
		c0.21,0,0.37-0.16,0.37-0.36S9.67,13.57,9.46,13.57"/>
	<path id="XMLID_11_" class="st2" d="M10.69,13.68c-0.07,0.07-0.11,0.16-0.11,0.25c0,0.09,0.04,0.19,0.11,0.25
		c0.07,0.06,0.16,0.1,0.27,0.1c0.1,0,0.19-0.04,0.27-0.1c0.07-0.07,0.11-0.16,0.11-0.25c0-0.09-0.04-0.19-0.11-0.25
		C11.08,13.55,10.83,13.55,10.69,13.68"/>
	<rect id="XMLID_10_" x="13.95" y="14.65" class="st2" width="5.99" height="3.59"/>
</g>
</svg>
