<?xml version="1.0" encoding="utf-8"?>
<!-- Generator: Adobe Illustrator 24.0.1, SVG Export Plug-In . SVG Version: 6.00 Build 0)  -->
<svg version="1.1" id="Layer_1" xmlns="http://www.w3.org/2000/svg" xmlns:xlink="http://www.w3.org/1999/xlink" x="0px" y="0px"
	 viewBox="0 0 22 24" style="enable-background:new 0 0 22 24;" xml:space="preserve">
<style type="text/css">
	.st0{fill:#4361C3;}
	.st1{fill:#4D69C6;}
	.st2{fill:#FF9900;}
	.st3{fill:#CC0000;}
	.st4{fill:#FCB340;}
	.st5{fill:#000066;}
	.st6{fill:#FFFFFF;}
</style>
<g>
	<path class="st0" d="M6.45,19.78h14.74c0.45,0,0.81-0.36,0.81-0.81V6.91L6.45,19.78z"/>
	<path class="st1" d="M22,5.03c0-0.45-0.36-0.81-0.81-0.81H0.81C0.36,4.22,0,4.58,0,5.03v13.94c0,0.45,0.36,0.81,0.81,0.81h5.64
		L22,6.91V5.03z"/>
</g>
<g id="layer1">
	<g id="g10305">
		<path id="path2268" class="st2" d="M18.62,12.01c0,2.51-2.03,4.54-4.54,4.54c-2.51,0-4.54-2.03-4.54-4.54c0,0,0,0,0,0
			c0-2.51,2.03-4.54,4.54-4.54C16.59,7.47,18.62,9.5,18.62,12.01C18.62,12.01,18.62,12.01,18.62,12.01z"/>
		<path id="path1350" class="st3" d="M7.96,7.47c-2.49,0.02-4.51,2.04-4.51,4.54c0,2.51,2.03,4.54,4.54,4.54
			c1.18,0,2.25-0.45,3.06-1.18c0,0,0,0,0,0h0c0.17-0.15,0.32-0.31,0.46-0.49h-0.93c-0.12-0.15-0.24-0.31-0.34-0.47h1.6
			c0.1-0.16,0.19-0.32,0.26-0.49H9.97c-0.07-0.16-0.14-0.32-0.19-0.48h2.51c0.15-0.45,0.23-0.94,0.23-1.44
			c0-0.33-0.04-0.66-0.1-0.97H9.65c0.03-0.16,0.08-0.32,0.13-0.48h2.51c-0.06-0.17-0.12-0.33-0.2-0.49H9.97
			c0.08-0.16,0.16-0.32,0.26-0.48h1.6c-0.11-0.17-0.22-0.33-0.35-0.49h-0.89c0.14-0.16,0.29-0.32,0.46-0.46
			c-0.81-0.74-1.88-1.18-3.06-1.18C7.98,7.47,7.97,7.47,7.96,7.47z"/>
		<path id="use9412" class="st4" d="M18.17,14.39c0.02,0,0.05,0.01,0.07,0.02c0.02,0.01,0.04,0.03,0.05,0.05
			c0.01,0.02,0.02,0.05,0.02,0.07c0,0.03-0.01,0.05-0.02,0.07c-0.01,0.02-0.03,0.04-0.05,0.05c-0.02,0.01-0.05,0.02-0.07,0.02
			s-0.05-0.01-0.07-0.02c-0.02-0.01-0.04-0.03-0.05-0.05c-0.01-0.02-0.02-0.05-0.02-0.07c0-0.03,0.01-0.05,0.02-0.07
			c0.01-0.02,0.03-0.04,0.05-0.05C18.12,14.39,18.14,14.39,18.17,14.39 M18.17,14.41c-0.02,0-0.04,0.01-0.06,0.02
			c-0.02,0.01-0.03,0.03-0.05,0.05c-0.01,0.02-0.02,0.04-0.02,0.06c0,0.02,0.01,0.04,0.02,0.06c0.01,0.02,0.03,0.03,0.05,0.05
			c0.02,0.01,0.04,0.02,0.06,0.02c0.02,0,0.04-0.01,0.06-0.02c0.02-0.01,0.03-0.03,0.05-0.05c0.01-0.02,0.02-0.04,0.02-0.06
			c0-0.02-0.01-0.04-0.02-0.06c-0.01-0.02-0.03-0.03-0.05-0.05C18.21,14.42,18.19,14.41,18.17,14.41 M18.1,14.62v-0.16h0.05
			c0.02,0,0.03,0,0.04,0c0.01,0,0.01,0.01,0.02,0.02c0,0.01,0.01,0.01,0.01,0.02c0,0.01,0,0.02-0.01,0.03
			c-0.01,0.01-0.02,0.01-0.03,0.01c0.01,0,0.01,0.01,0.01,0.01c0.01,0.01,0.01,0.02,0.02,0.03l0.02,0.03H18.2l-0.01-0.02
			c-0.01-0.02-0.02-0.03-0.03-0.04c0,0-0.01-0.01-0.02-0.01h-0.02v0.07L18.1,14.62 M18.13,14.53h0.03c0.01,0,0.02,0,0.03-0.01
			c0.01,0,0.01-0.01,0.01-0.02c0,0,0-0.01,0-0.01c0,0-0.01-0.01-0.01-0.01c0,0-0.01,0-0.03,0h-0.03L18.13,14.53"/>
	</g>
	<g id="g16480">
		<g id="g13802" transform="translate(-13.74405,15.9939)">
			<path id="path13804" class="st5" d="M23.24-2.68l0.06-0.41c-0.03,0-0.08,0.01-0.12,0.01c-0.17,0-0.19-0.09-0.18-0.16l0.17-0.83
				h0.26l0.05-0.47h-0.24l0.05-0.28h-0.5c-0.01,0.01-0.29,1.59-0.29,1.78c0,0.28,0.16,0.41,0.39,0.41
				C23.05-2.61,23.19-2.66,23.24-2.68z"/>
			<path id="path13806" class="st5" d="M23.39-3.46c0,0.68,0.45,0.85,0.84,0.85c0.35,0,0.54-0.08,0.54-0.08l0.09-0.47
				c0,0-0.3,0.12-0.54,0.12c-0.52,0-0.43-0.39-0.43-0.39l1,0c0,0,0.06-0.31,0.06-0.44c0-0.32-0.17-0.71-0.7-0.71
				C23.75-4.58,23.39-4.05,23.39-3.46z M24.24-4.14c0.27,0,0.22,0.31,0.22,0.33h-0.54C23.93-3.84,23.98-4.14,24.24-4.14z"/>
			<path id="path13808" class="st5" d="M27.3-2.68l0.09-0.53c0,0-0.24,0.12-0.4,0.12c-0.34,0-0.48-0.26-0.48-0.54
				c0-0.57,0.3-0.88,0.62-0.88c0.25,0,0.44,0.14,0.44,0.14l0.08-0.51c0,0-0.23-0.17-0.48-0.17c-0.76,0-1.19,0.52-1.19,1.43
				c0,0.6,0.32,1.01,0.9,1.01C27.04-2.61,27.3-2.68,27.3-2.68z"/>
			<path id="path13810" class="st5" d="M20.58-4.57C20.25-4.57,20-4.46,20-4.46l-0.07,0.42c0,0,0.21-0.09,0.53-0.09
				c0.18,0,0.31,0.02,0.31,0.17c0,0.09-0.02,0.12-0.02,0.12s-0.14-0.01-0.21-0.01c-0.47,0-0.86,0.18-0.86,0.72
				c0,0.42,0.29,0.52,0.47,0.52c0.34,0,0.48-0.22,0.48-0.22l0,0.18c0,0,0.43,0,0.43,0l0.19-1.33C21.24-4.55,20.75-4.57,20.58-4.57z
				 M20.65-3.49c0.01,0.08-0.02,0.47-0.31,0.47c-0.15,0-0.19-0.11-0.19-0.18c0-0.13,0.07-0.29,0.43-0.29
				C20.66-3.5,20.64-3.49,20.65-3.49z"/>
			<path id="path13812" class="st5" d="M21.7-2.63c0.11,0,0.73,0.03,0.73-0.61c0-0.6-0.58-0.48-0.58-0.72
				c0-0.12,0.09-0.16,0.27-0.16c0.07,0,0.33,0.02,0.33,0.02l0.06-0.43c0,0-0.17-0.04-0.45-0.04c-0.36,0-0.72,0.14-0.72,0.63
				c0,0.55,0.61,0.5,0.61,0.73c0,0.16-0.17,0.17-0.3,0.17c-0.23,0-0.43-0.08-0.43-0.07l-0.06,0.42C21.17-2.68,21.29-2.63,21.7-2.63z
				"/>
			<path id="path13814" class="st5" d="M31.29-4.96L31.2-4.3c0,0-0.18-0.25-0.47-0.25c-0.54,0-0.81,0.53-0.81,1.15
				c0,0.4,0.2,0.78,0.6,0.78c0.29,0,0.45-0.2,0.45-0.2l-0.02,0.17h0.47l0.37-2.3L31.29-4.96z M31.08-3.69c0,0.26-0.13,0.6-0.39,0.6
				c-0.17,0-0.26-0.15-0.26-0.38c0-0.37,0.17-0.62,0.38-0.62C30.99-4.09,31.08-3.97,31.08-3.69z"/>
			<path id="path13816" class="st5" d="M17.96-2.65l0.29-1.74l0.04,1.74h0.33l0.62-1.74l-0.28,1.74h0.5l0.38-2.3l-0.79-0.01
				L18.6-3.55l-0.01-1.4h-0.72l-0.39,2.3L17.96-2.65L17.96-2.65z"/>
			<path id="path13818" class="st5" d="M25.41-2.65c0.14-0.8,0.19-1.43,0.6-1.3c0.06-0.31,0.2-0.58,0.26-0.71
				c0,0-0.02-0.03-0.15-0.03c-0.22,0-0.51,0.44-0.51,0.44l0.04-0.27h-0.45l-0.3,1.87L25.41-2.65L25.41-2.65z"/>
			<g id="use14699" transform="translate(845.3001,0)">
				<path id="path13810_1_" class="st5" d="M-816.98-4.57c-0.33,0-0.59,0.11-0.59,0.11l-0.07,0.42c0,0,0.21-0.09,0.53-0.09
					c0.18,0,0.31,0.02,0.31,0.17c0,0.09-0.02,0.12-0.02,0.12s-0.14-0.01-0.21-0.01c-0.47,0-0.86,0.18-0.86,0.72
					c0,0.42,0.29,0.52,0.47,0.52c0.34,0,0.48-0.22,0.48-0.22l0,0.18h0.43l0.19-1.33C-816.32-4.55-816.81-4.57-816.98-4.57z
					 M-816.91-3.49c0.01,0.08-0.02,0.47-0.31,0.47c-0.15,0-0.19-0.11-0.19-0.18c0-0.13,0.07-0.29,0.43-0.29
					C-816.9-3.5-816.92-3.49-816.91-3.49z"/>
			</g>
			<path id="use14701" class="st5" d="M29.47-2.65c0.08-0.59,0.22-1.42,0.6-1.3c0.06-0.31,0-0.31-0.12-0.31
				c-0.22,0-0.26,0.01-0.26,0.01l0.04-0.27h-0.45l-0.3,1.87L29.47-2.65L29.47-2.65z"/>
		</g>
		<g id="g10289">
			<path id="path4157" class="st6" d="M9.62,13.17l0.06-0.41c-0.03,0-0.08,0.01-0.12,0.01c-0.17,0-0.19-0.09-0.18-0.16l0.14-0.84
				h0.26l0.06-0.45H9.59l0.05-0.28H9.16c-0.01,0.01-0.29,1.59-0.29,1.78c0,0.28,0.16,0.41,0.39,0.41
				C9.44,13.23,9.57,13.18,9.62,13.17z"/>
			<path id="path4155" class="st6" d="M9.78,12.39c0,0.68,0.45,0.85,0.84,0.85c0.35,0,0.51-0.08,0.51-0.08l0.09-0.47
				c0,0-0.27,0.12-0.51,0.12c-0.52,0-0.43-0.39-0.43-0.39h0.98c0,0,0.06-0.31,0.06-0.44c0-0.32-0.16-0.71-0.69-0.71
				C10.14,11.27,9.78,11.79,9.78,12.39z M10.62,11.7c0.27,0,0.22,0.31,0.22,0.33h-0.54C10.31,12,10.36,11.7,10.62,11.7z"/>
			<path id="path4151" class="st6" d="M13.69,13.17l0.09-0.53c0,0-0.24,0.12-0.4,0.12c-0.34,0-0.48-0.26-0.48-0.54
				c0-0.57,0.3-0.88,0.62-0.88c0.25,0,0.44,0.14,0.44,0.14l0.08-0.51c0,0-0.29-0.12-0.54-0.12c-0.56,0-1.1,0.48-1.1,1.39
				c0,0.6,0.29,1,0.87,1C13.43,13.24,13.69,13.17,13.69,13.17z"/>
			<path id="path4149" class="st6" d="M6.96,11.28c-0.33,0-0.59,0.11-0.59,0.11L6.31,11.8c0,0,0.21-0.09,0.53-0.09
				c0.18,0,0.31,0.02,0.31,0.17c0,0.09-0.02,0.12-0.02,0.12s-0.14-0.01-0.21-0.01c-0.42,0-0.86,0.18-0.86,0.72
				c0,0.42,0.29,0.52,0.47,0.52c0.34,0,0.49-0.22,0.5-0.22l-0.02,0.18h0.43l0.19-1.33C7.63,11.3,7.13,11.28,6.96,11.28z M7.07,12.36
				c0.01,0.08-0.05,0.46-0.34,0.46c-0.15,0-0.19-0.11-0.19-0.18c0-0.13,0.07-0.29,0.43-0.29C7.04,12.35,7.05,12.36,7.07,12.36z"/>
			<path id="path4145" class="st6" d="M8.08,13.22c0.11,0,0.73,0.03,0.73-0.61c0-0.6-0.58-0.48-0.58-0.72
				c0-0.12,0.09-0.16,0.27-0.16c0.07,0,0.33,0.02,0.33,0.02l0.06-0.43c0,0-0.17-0.04-0.45-0.04c-0.36,0-0.72,0.14-0.72,0.63
				c0,0.55,0.61,0.5,0.61,0.73c0,0.16-0.17,0.17-0.3,0.17c-0.23,0-0.43-0.08-0.43-0.07l-0.06,0.42C7.55,13.16,7.67,13.22,8.08,13.22
				z"/>
			<path id="path4139" class="st6" d="M17.69,10.9l-0.1,0.65c0,0-0.18-0.25-0.47-0.25c-0.44,0-0.81,0.53-0.81,1.15
				c0,0.4,0.2,0.78,0.6,0.78c0.29,0,0.45-0.2,0.45-0.2l-0.02,0.17h0.47l0.37-2.3L17.69,10.9z M17.47,12.16c0,0.26-0.13,0.6-0.39,0.6
				c-0.17,0-0.26-0.15-0.26-0.38c0-0.37,0.17-0.62,0.38-0.62C17.38,11.76,17.47,11.88,17.47,12.16z"/>
			<path id="path4133" class="st6" d="M4.34,13.2l0.29-1.74l0.04,1.74h0.33l0.62-1.74L5.36,13.2h0.5l0.38-2.3H5.47L5,12.31
				l-0.02-1.41H4.27l-0.39,2.3C3.88,13.2,4.34,13.2,4.34,13.2z"/>
			<path id="path4131" class="st6" d="M11.79,13.2c0.14-0.8,0.17-1.45,0.5-1.33c0.06-0.31,0.12-0.43,0.18-0.56
				c0,0-0.03-0.01-0.09-0.01c-0.22,0-0.38,0.3-0.38,0.3l0.04-0.27H11.6l-0.3,1.87H11.79z"/>
			<g id="use8523" transform="translate(847.0062,0)">
				<path id="path4149_1_" class="st6" d="M-832.2,11.28c-0.33,0-0.59,0.11-0.59,0.11l-0.07,0.42c0,0,0.21-0.09,0.53-0.09
					c0.18,0,0.31,0.02,0.31,0.17c0,0.09-0.02,0.12-0.02,0.12s-0.14-0.01-0.21-0.01c-0.42,0-0.86,0.18-0.86,0.72
					c0,0.42,0.29,0.52,0.47,0.52c0.34,0,0.49-0.22,0.5-0.22l-0.02,0.18c0,0,0.43,0,0.43,0l0.19-1.33
					C-831.54,11.3-832.03,11.28-832.2,11.28z M-832.1,12.36c0.01,0.08-0.05,0.46-0.34,0.46c-0.15,0-0.19-0.11-0.19-0.18
					c0-0.13,0.07-0.29,0.43-0.29C-832.12,12.35-832.12,12.36-832.1,12.36z"/>
			</g>
			<g id="use8525" transform="translate(442.2857,0)">
				<path id="path4131_1_" class="st6" d="M-426.43,13.2c0.14-0.8,0.17-1.45,0.5-1.33c0.06-0.31,0.12-0.43,0.18-0.56
					c0,0-0.03-0.01-0.09-0.01c-0.22,0-0.38,0.3-0.38,0.3l0.04-0.27h-0.45l-0.3,1.87H-426.43z"/>
			</g>
			<path id="text9407" class="st6" d="M18.17,12.91c0.02,0,0.05,0.01,0.07,0.02c0.02,0.01,0.04,0.03,0.05,0.05
				c0.01,0.02,0.02,0.05,0.02,0.07c0,0.03-0.01,0.05-0.02,0.07c-0.01,0.02-0.03,0.04-0.05,0.05c-0.02,0.01-0.05,0.02-0.07,0.02
				c-0.03,0-0.05-0.01-0.07-0.02c-0.02-0.01-0.04-0.03-0.05-0.05c-0.01-0.02-0.02-0.05-0.02-0.07c0-0.03,0.01-0.05,0.02-0.07
				c0.01-0.02,0.03-0.04,0.05-0.05C18.12,12.92,18.14,12.91,18.17,12.91 M18.17,12.93c-0.02,0-0.04,0.01-0.06,0.02
				c-0.02,0.01-0.03,0.03-0.05,0.05c-0.01,0.02-0.02,0.04-0.02,0.06c0,0.02,0.01,0.04,0.02,0.06c0.01,0.02,0.03,0.03,0.05,0.05
				c0.02,0.01,0.04,0.02,0.06,0.02c0.02,0,0.04-0.01,0.06-0.02c0.02-0.01,0.03-0.03,0.05-0.05c0.01-0.02,0.02-0.04,0.02-0.06
				c0-0.02-0.01-0.04-0.02-0.06c-0.01-0.02-0.03-0.03-0.05-0.05C18.21,12.94,18.19,12.93,18.17,12.93 M18.1,13.14v-0.16h0.05
				c0.02,0,0.03,0,0.04,0c0.01,0,0.01,0.01,0.02,0.02c0,0.01,0.01,0.01,0.01,0.02c0,0.01,0,0.02-0.01,0.03
				c-0.01,0.01-0.02,0.01-0.03,0.01c0.01,0,0.01,0.01,0.01,0.01c0.01,0.01,0.01,0.02,0.02,0.03l0.02,0.03H18.2l-0.01-0.02
				c-0.01-0.02-0.02-0.03-0.03-0.04c0,0-0.01-0.01-0.02-0.01h-0.01v0.07L18.1,13.14 M18.13,13.05h0.03c0.01,0,0.02,0,0.03-0.01
				c0.01,0,0.01-0.01,0.01-0.02c0,0,0-0.01,0-0.01c0,0-0.01-0.01-0.01-0.01c0,0-0.01,0-0.03,0h-0.03L18.13,13.05"/>
		</g>
	</g>
</g>
</svg>
