<?xml version="1.0" encoding="utf-8"?>
<!-- Generator: Adobe Illustrator 24.0.1, SVG Export Plug-In . SVG Version: 6.00 Build 0)  -->
<svg version="1.1" id="Layer_1" xmlns="http://www.w3.org/2000/svg" xmlns:xlink="http://www.w3.org/1999/xlink" x="0px" y="0px"
	 viewBox="0 0 22 24" style="enable-background:new 0 0 22 24;" xml:space="preserve">
<style type="text/css">
	.st0{fill:#007B84;}
	.st1{fill:#E21836;}
	.st2{fill:#00447C;}
	.st3{fill:#FEFEFE;}
</style>
<g>
	<path class="st0" d="M21,19.88H1c-0.55,0-1-0.45-1-1V5.25c0-0.55,0.45-1,1-1H21c0.55,0,1,0.45,1,1v13.62
		C22,19.43,21.55,19.88,21,19.88z M1,4.5c-0.42,0-0.75,0.34-0.75,0.75v13.62c0,0.42,0.34,0.75,0.75,0.75H21
		c0.42,0,0.75-0.34,0.75-0.75V5.25c0-0.42-0.34-0.75-0.75-0.75H1z"/>
</g>
<g>
	<path class="st1" d="M5.72,6.64h4.33c0.6,0,0.98,0.49,0.84,1.1L8.88,16.4c-0.14,0.6-0.75,1.1-1.35,1.1H3.19
		c-0.6,0-0.98-0.49-0.84-1.1l2.02-8.66C4.51,7.13,5.11,6.64,5.72,6.64"/>
	<path class="st2" d="M9.69,6.64h4.98c0.6,0,0.33,0.49,0.19,1.1l-2.02,8.66c-0.14,0.6-0.1,1.1-0.7,1.1H7.16
		c-0.61,0-0.98-0.49-0.84-1.1l2.02-8.66C8.48,7.13,9.09,6.64,9.69,6.64"/>
	<path class="st0" d="M14.48,6.64h4.33c0.61,0,0.98,0.49,0.84,1.1l-2.02,8.66c-0.14,0.6-0.75,1.1-1.35,1.1h-4.33
		c-0.61,0-0.98-0.49-0.84-1.1l2.02-8.66C13.27,7.13,13.87,6.64,14.48,6.64"/>
	<path class="st3" d="M6.85,9.41c-0.45,0-0.58,0-0.62-0.01c-0.02,0.08-0.32,1.46-0.32,1.47c-0.06,0.28-0.11,0.48-0.27,0.61
		c-0.09,0.08-0.2,0.11-0.32,0.11c-0.2,0-0.31-0.1-0.33-0.28l0-0.06c0,0,0.06-0.38,0.06-0.38c0,0,0.32-1.26,0.37-1.43
		c0-0.01,0-0.01,0-0.02c-0.61,0.01-0.72,0-0.73-0.01c0,0.01-0.02,0.09-0.02,0.09l-0.32,1.42l-0.03,0.12l-0.05,0.4
		c0,0.12,0.02,0.21,0.07,0.29c0.15,0.26,0.57,0.3,0.8,0.3c0.31,0,0.59-0.06,0.79-0.18c0.34-0.2,0.42-0.51,0.5-0.78l0.04-0.14
		c0,0,0.33-1.31,0.38-1.48C6.85,9.42,6.85,9.42,6.85,9.41z M7.96,10.47c-0.08,0-0.22,0.02-0.35,0.08c-0.05,0.02-0.09,0.05-0.14,0.08
		l0.04-0.15l-0.02-0.03c-0.27,0.06-0.33,0.06-0.59,0.1l-0.02,0.01c-0.03,0.24-0.06,0.43-0.16,0.9C6.68,11.65,6.63,11.82,6.59,12
		l0.01,0.02c0.26-0.01,0.34-0.01,0.56-0.01l0.02-0.02c0.03-0.15,0.03-0.18,0.1-0.48c0.03-0.14,0.09-0.45,0.12-0.56
		c0.06-0.03,0.11-0.05,0.16-0.05c0.13,0,0.11,0.11,0.11,0.15c-0.01,0.07-0.05,0.31-0.1,0.52l-0.03,0.13
		C7.52,11.81,7.49,11.9,7.47,12l0.01,0.02c0.25-0.01,0.33-0.01,0.55-0.01l0.03-0.02c0.04-0.23,0.05-0.29,0.12-0.62l0.04-0.15
		c0.07-0.3,0.1-0.45,0.05-0.57C8.21,10.5,8.08,10.47,7.96,10.47z M9.19,10.78c-0.14,0.03-0.22,0.04-0.31,0.05
		c-0.09,0.01-0.17,0.03-0.3,0.04l-0.01,0.01L8.57,10.9c-0.01,0.1-0.02,0.18-0.04,0.28c-0.02,0.1-0.04,0.22-0.08,0.39
		c-0.03,0.13-0.04,0.17-0.06,0.22C8.37,11.83,8.35,11.87,8.32,12l0.01,0.01l0.01,0.01c0.12-0.01,0.2-0.01,0.28-0.01
		c0.08,0,0.17,0,0.3,0L8.93,12l0.01-0.01c0.02-0.11,0.02-0.14,0.03-0.2c0.01-0.06,0.03-0.14,0.08-0.36c0.02-0.1,0.05-0.21,0.07-0.31
		c0.02-0.1,0.05-0.21,0.08-0.31l0-0.01L9.19,10.78z M9.2,10.36c-0.12-0.07-0.34-0.05-0.48,0.05c-0.14,0.1-0.16,0.24-0.04,0.31
		c0.12,0.07,0.34,0.05,0.48-0.05C9.3,10.57,9.32,10.43,9.2,10.36z M9.94,12.04c0.25,0,0.5-0.07,0.7-0.27
		c0.15-0.16,0.22-0.41,0.24-0.51c0.08-0.34,0.02-0.49-0.06-0.59c-0.11-0.15-0.31-0.19-0.52-0.19c-0.13,0-0.42,0.01-0.66,0.23
		c-0.17,0.15-0.24,0.36-0.29,0.57c-0.05,0.21-0.1,0.57,0.24,0.71C9.69,12.03,9.84,12.04,9.94,12.04z M9.92,11.29
		c0.06-0.25,0.13-0.47,0.3-0.47c0.14,0,0.15,0.16,0.09,0.41c-0.01,0.06-0.06,0.27-0.13,0.36c-0.05,0.07-0.1,0.11-0.16,0.11
		c-0.02,0-0.13,0-0.13-0.16C9.88,11.46,9.9,11.38,9.92,11.29z M11.5,12.01l0.02-0.02c0.03-0.15,0.03-0.18,0.09-0.48
		c0.03-0.14,0.09-0.45,0.12-0.56c0.06-0.03,0.11-0.05,0.17-0.05c0.12,0,0.11,0.11,0.1,0.15c0,0.07-0.05,0.31-0.1,0.52l-0.03,0.13
		c-0.02,0.1-0.05,0.19-0.07,0.29l0.01,0.02c0.26-0.01,0.33-0.01,0.55-0.01l0.03-0.02c0.04-0.23,0.05-0.29,0.12-0.62l0.03-0.15
		c0.07-0.3,0.1-0.45,0.05-0.57c-0.06-0.14-0.19-0.17-0.31-0.17c-0.08,0-0.22,0.02-0.35,0.08c-0.05,0.02-0.09,0.05-0.14,0.08
		l0.04-0.15l-0.02-0.03c-0.27,0.06-0.34,0.06-0.59,0.1l-0.02,0.01c-0.03,0.24-0.06,0.42-0.16,0.9c-0.04,0.18-0.08,0.35-0.13,0.53
		l0.01,0.02C11.19,12.01,11.27,12.01,11.5,12.01z M13.37,12.02c0.02-0.08,0.11-0.54,0.11-0.54c0,0,0.08-0.34,0.09-0.35
		c0,0,0.03-0.04,0.05-0.05h0.04c0.35,0,0.76,0,1.07-0.23c0.21-0.16,0.36-0.39,0.42-0.68c0.02-0.07,0.03-0.15,0.03-0.24
		c0-0.11-0.02-0.22-0.09-0.3c-0.16-0.22-0.48-0.23-0.85-0.23c0,0-0.18,0-0.18,0c-0.47,0.01-0.66,0-0.74-0.01
		c-0.01,0.03-0.02,0.1-0.02,0.1s-0.17,0.78-0.17,0.78c0,0-0.4,1.66-0.42,1.74C13.13,12.01,13.3,12.01,13.37,12.02z M13.68,10.63
		c0,0,0.18-0.78,0.18-0.78l0.01-0.04l0-0.03l0.07,0.01c0,0,0.37,0.03,0.38,0.03c0.15,0.06,0.21,0.2,0.16,0.39
		c-0.04,0.17-0.15,0.32-0.3,0.39c-0.12,0.06-0.27,0.06-0.42,0.06h-0.1L13.68,10.63z M14.8,11.3c-0.05,0.2-0.1,0.57,0.24,0.7
		c0.11,0.05,0.2,0.06,0.3,0.05c0.1-0.01,0.2-0.06,0.29-0.13c-0.01,0.03-0.02,0.06-0.02,0.09l0.02,0.02
		c0.24-0.01,0.32-0.01,0.58-0.01l0.02-0.02c0.04-0.23,0.07-0.45,0.17-0.88c0.05-0.21,0.1-0.41,0.15-0.62l-0.01-0.02
		c-0.27,0.05-0.34,0.06-0.61,0.1l-0.02,0.02c0,0.02-0.01,0.04-0.01,0.06c-0.04-0.07-0.1-0.12-0.19-0.16
		c-0.12-0.05-0.39,0.01-0.62,0.23C14.93,10.89,14.85,11.1,14.8,11.3z M15.37,11.32c0.06-0.25,0.13-0.46,0.3-0.46
		c0.11,0,0.17,0.1,0.16,0.27c-0.01,0.04-0.02,0.09-0.03,0.14c-0.02,0.07-0.04,0.15-0.05,0.22c-0.02,0.05-0.04,0.1-0.06,0.13
		c-0.04,0.06-0.15,0.1-0.21,0.1c-0.02,0-0.12,0-0.13-0.16C15.34,11.49,15.35,11.4,15.37,11.32z M18.35,10.49l-0.02-0.02
		c-0.27,0.05-0.32,0.06-0.56,0.1l-0.02,0.02c0,0,0,0.01,0,0.01l0,0c-0.18,0.42-0.18,0.33-0.33,0.67c0-0.02,0-0.02,0-0.04l-0.04-0.72
		l-0.02-0.02c-0.28,0.05-0.29,0.06-0.55,0.1l-0.02,0.02c0,0.01,0,0.02,0,0.03l0,0c0.03,0.17,0.02,0.13,0.06,0.39
		c0.02,0.13,0.04,0.26,0.05,0.39c0.03,0.21,0.04,0.32,0.07,0.64c-0.18,0.29-0.22,0.4-0.39,0.65l0,0l-0.12,0.19
		c-0.01,0.02-0.03,0.03-0.04,0.04c-0.02,0.01-0.04,0.01-0.08,0.01h-0.07l-0.1,0.33l0.34,0.01c0.2,0,0.32-0.09,0.39-0.22l0.21-0.36h0
		l0.02-0.03C17.27,12.35,18.35,10.49,18.35,10.49z M14.8,14.78h-0.14l0.53-1.75h0.18l0.06-0.18l0.01,0.2
		c-0.01,0.12,0.09,0.23,0.35,0.22h0.3l0.1-0.34h-0.11c-0.06,0-0.09-0.02-0.09-0.05l-0.01-0.2h-0.55v0c-0.18,0-0.71,0.02-0.81,0.05
		c-0.13,0.03-0.27,0.13-0.27,0.13l0.05-0.18h-0.51l-0.11,0.36l-0.54,1.77h-0.1l-0.1,0.33h1.02l-0.03,0.11h0.5l0.03-0.11h0.14
		L14.8,14.78z M14.38,13.39c-0.08,0.02-0.23,0.09-0.23,0.09l0.14-0.45h0.41l-0.1,0.33C14.59,13.36,14.47,13.36,14.38,13.39z
		 M14.39,14.03c0,0-0.13,0.02-0.21,0.04c-0.08,0.03-0.24,0.1-0.24,0.1l0.14-0.46h0.41L14.39,14.03z M14.16,14.78h-0.41l0.12-0.39
		h0.41L14.16,14.78z M15.15,13.7h0.59l-0.08,0.27h-0.6l-0.09,0.3h0.52l-0.4,0.56c-0.03,0.04-0.05,0.06-0.08,0.07
		c-0.03,0.01-0.06,0.03-0.11,0.03h-0.14l-0.1,0.33h0.38c0.2,0,0.31-0.09,0.4-0.21l0.27-0.37l0.06,0.38c0.01,0.07,0.06,0.11,0.1,0.13
		c0.04,0.02,0.08,0.05,0.13,0.06c0.06,0,0.1,0,0.13,0h0.19l0.11-0.37h-0.07c-0.04,0-0.11-0.01-0.13-0.02
		c-0.01-0.02-0.01-0.04-0.02-0.08l-0.06-0.38h-0.24l0.11-0.13h0.6l0.09-0.3h-0.55l0.09-0.27h0.55l0.1-0.34h-1.64L15.15,13.7z
		 M10.17,14.86l0.14-0.46h0.56l0.1-0.34h-0.57l0.09-0.28h0.55l0.1-0.33H9.77l-0.1,0.33h0.31L9.9,14.06H9.59l-0.1,0.35H9.8l-0.18,0.6
		c-0.02,0.08,0.01,0.11,0.03,0.15c0.02,0.04,0.05,0.06,0.1,0.07c0.06,0.01,0.09,0.02,0.14,0.02h0.64l0.11-0.38l-0.28,0.04
		C10.31,14.92,10.16,14.91,10.17,14.86z M10.24,12.67l-0.14,0.26c-0.03,0.06-0.06,0.09-0.08,0.11c-0.02,0.01-0.07,0.02-0.13,0.02
		H9.81l-0.1,0.33h0.25c0.12,0,0.21-0.04,0.25-0.07c0.05-0.03,0.06-0.01,0.1-0.05l0.08-0.07h0.77l0.1-0.34H10.7l0.1-0.19H10.24z
		 M11.38,14.87c-0.01-0.02,0-0.05,0.02-0.12l0.21-0.7h0.75c0.11,0,0.19,0,0.24-0.01c0.06-0.01,0.12-0.03,0.18-0.06
		c0.07-0.04,0.1-0.08,0.13-0.12c0.03-0.04,0.09-0.14,0.13-0.29l0.27-0.89l-0.78,0c0,0-0.24,0.04-0.35,0.07
		c-0.11,0.04-0.26,0.17-0.26,0.17L12,12.68h-0.48l-0.68,2.24c-0.02,0.09-0.04,0.15-0.04,0.19c0,0.04,0.05,0.08,0.09,0.11
		c0.04,0.03,0.1,0.03,0.16,0.03c0.06,0,0.15,0.01,0.26,0.01h0.37l0.11-0.38l-0.33,0.03C11.42,14.9,11.39,14.88,11.38,14.87z
		 M11.75,13.57h0.79l-0.05,0.16c-0.01,0-0.02-0.01-0.1,0H11.7L11.75,13.57z M11.91,13.04h0.8l-0.06,0.19c0,0-0.38,0-0.44,0.01
		c-0.26,0.05-0.42,0.19-0.42,0.19L11.91,13.04z M12.51,14.26c-0.01,0.02-0.02,0.04-0.03,0.05c-0.02,0.01-0.04,0.01-0.08,0.01h-0.11
		l0.01-0.19h-0.47l-0.02,0.94c0,0.07,0.01,0.11,0.06,0.14c0.05,0.04,0.2,0.04,0.41,0.04h0.29l0.11-0.35l-0.26,0.01l-0.09,0
		c-0.01,0-0.02-0.01-0.04-0.02c-0.01-0.01-0.03,0-0.03-0.07l0-0.24l0.27-0.01c0.14,0,0.21-0.05,0.26-0.09
		c0.05-0.04,0.07-0.09,0.09-0.16l0.04-0.21h-0.37L12.51,14.26z"/>
</g>
</svg>
