<?xml version="1.0" encoding="utf-8"?>
<!-- Generator: Adobe Illustrator 24.0.1, SVG Export Plug-In . SVG Version: 6.00 Build 0)  -->
<svg version="1.1" id="Layer_1" xmlns="http://www.w3.org/2000/svg" xmlns:xlink="http://www.w3.org/1999/xlink" x="0px" y="0px"
	 viewBox="0 0 22 24" style="enable-background:new 0 0 22 24;" xml:space="preserve">
<style type="text/css">
	.st0{fill:#007B84;}
	.st1{fill:#E0E0E0;}
</style>
<path class="st0" d="M21.11,19.78H0.89C0.4,19.78,0,19.38,0,18.89V5.11c0-0.49,0.4-0.89,0.89-0.89h20.22c0.49,0,0.89,0.4,0.89,0.89
	v13.78C22,19.38,21.6,19.78,21.11,19.78z"/>
<g>
	<rect id="XMLID_113_" y="5.99" class="st1" width="22" height="2.99"/>
	<path id="XMLID_112_" class="st1" d="M6.09,11.28l-3.55,0c-0.38,0.33-0.15,0.75,0.18,0.75l3.55,0C6.65,11.69,6.42,11.28,6.09,11.28
		"/>
	<path id="XMLID_111_" class="st1" d="M11.33,11.65c0-0.21-0.17-0.37-0.37-0.37l-3.55,0c-0.38,0.33-0.15,0.75,0.18,0.75h3.37
		C11.16,12.02,11.33,11.86,11.33,11.65"/>
	<path id="XMLID_110_" class="st1" d="M3.1,13.15l-0.55,0c-0.38,0.33-0.15,0.75,0.18,0.75l0.55,0C3.65,13.57,3.43,13.15,3.1,13.15"
		/>
	<path id="XMLID_109_" class="st1" d="M5.34,13.15l-0.93,0c-0.38,0.33-0.15,0.75,0.18,0.75l0.93,0C5.9,13.57,5.67,13.15,5.34,13.15"
		/>
	<path id="XMLID_108_" class="st1" d="M7.21,13.15l-0.55,0c-0.38,0.33-0.15,0.75,0.18,0.75l0.55,0C7.77,13.57,7.54,13.15,7.21,13.15
		"/>
	<path id="XMLID_107_" class="st1" d="M9.46,13.15l-0.93,0c-0.38,0.33-0.15,0.75,0.18,0.75l0.93,0
		C10.01,13.57,9.79,13.15,9.46,13.15"/>
	<path id="XMLID_106_" class="st1" d="M10.69,13.25c-0.07,0.07-0.11,0.17-0.11,0.27c0,0.1,0.04,0.19,0.11,0.27
		c0.07,0.07,0.16,0.11,0.27,0.11c0.1,0,0.19-0.04,0.27-0.11c0.07-0.07,0.11-0.17,0.11-0.27c0-0.1-0.04-0.19-0.11-0.27
		C11.08,13.12,10.83,13.12,10.69,13.25"/>
	<rect id="XMLID_105_" x="13.95" y="14.27" class="st1" width="5.99" height="3.74"/>
</g>
</svg>
