<?xml version="1.0" encoding="utf-8"?>
<!-- Generator: Adobe Illustrator 24.0.1, SVG Export Plug-In . SVG Version: 6.00 Build 0)  -->
<svg version="1.1" id="Layer_1" xmlns="http://www.w3.org/2000/svg" xmlns:xlink="http://www.w3.org/1999/xlink" x="0px" y="0px"
	 viewBox="0 0 22 24" style="enable-background:new 0 0 22 24;" xml:space="preserve">
<style type="text/css">
	.st0{fill:#F9F9F9;}
	.st1{fill:#1661A3;}
	.st2{fill:#E59703;}
	.st3{fill:#00579F;}
	.st4{fill:#FAA61A;}
</style>
<g>
	<g>
		<rect y="8.3" class="st0" width="22" height="7.33"/>
		<path class="st1" d="M22,5.06c0-0.45-0.36-0.81-0.81-0.81H0.81C0.36,4.25,0,4.62,0,5.06V8.3h22V5.06z"/>
		<path class="st2" d="M0,18.97c0,0.45,0.36,0.81,0.81,0.81h20.38c0.45,0,0.81-0.36,0.81-0.81v-3.33H0V18.97z"/>
	</g>
	<g id="g4158" transform="matrix(4.4299631,0,0,4.4299631,-81.165783,-105.04783)">
		<polygon id="polygon9" class="st3" points="20.6,26.9 20.36,26.9 20.51,25.96 20.76,25.96 		"/>
		<path id="path11" class="st3" d="M21.49,25.98c-0.05-0.02-0.12-0.04-0.22-0.04c-0.24,0-0.41,0.13-0.41,0.31
			c0,0.14,0.12,0.21,0.21,0.26c0.09,0.05,0.13,0.08,0.13,0.12c0,0.06-0.08,0.09-0.15,0.09c-0.1,0-0.15-0.01-0.23-0.05l-0.03-0.02
			l-0.03,0.21c0.06,0.03,0.16,0.05,0.27,0.05c0.26,0,0.42-0.13,0.42-0.32c0-0.11-0.06-0.19-0.2-0.26c-0.09-0.04-0.14-0.07-0.14-0.12
			c0-0.04,0.04-0.08,0.14-0.08c0.08,0,0.14,0.02,0.18,0.04l0.02,0.01L21.49,25.98C21.49,25.98,21.49,25.98,21.49,25.98z"/>
		<path id="path13" class="st3" d="M21.81,26.56c0.02-0.05,0.1-0.26,0.1-0.26c0,0,0.02-0.06,0.03-0.09l0.02,0.08
			c0,0,0.05,0.23,0.06,0.27C21.98,26.56,21.86,26.56,21.81,26.56L21.81,26.56z M22.11,25.96h-0.19c-0.06,0-0.1,0.02-0.13,0.08
			l-0.36,0.86h0.26c0,0,0.04-0.12,0.05-0.14c0.03,0,0.28,0,0.31,0c0.01,0.03,0.03,0.14,0.03,0.14h0.23L22.11,25.96L22.11,25.96
			L22.11,25.96z"/>
		<path id="path15" class="st3" d="M20.16,25.96l-0.24,0.64l-0.03-0.13c-0.04-0.15-0.18-0.31-0.34-0.39l0.22,0.82h0.26l0.38-0.94
			H20.16L20.16,25.96L20.16,25.96z"/>
		<path id="path17" class="st4" d="M19.7,25.96H19.3l0,0.02c0.31,0.08,0.51,0.27,0.59,0.49l-0.09-0.43
			C19.79,25.98,19.75,25.96,19.7,25.96L19.7,25.96z"/>
	</g>
</g>
</svg>
