<?xml version="1.0" encoding="utf-8"?>
<!-- Generator: Adobe Illustrator 24.0.1, SVG Export Plug-In . SVG Version: 6.00 Build 0)  -->
<svg version="1.1" id="Layer_1" xmlns="http://www.w3.org/2000/svg" xmlns:xlink="http://www.w3.org/1999/xlink" x="0px" y="0px"
	 viewBox="0 0 22 24" style="enable-background:new 0 0 22 24;" xml:space="preserve">
<style type="text/css">
	.st0{fill:#E59703;}
	.st1{fill:#F9F9F9;}
</style>
<g>
	<path class="st0" d="M6.45,19.75h14.74c0.45,0,0.81-0.36,0.81-0.81V6.93L6.45,19.75z"/>
	<path class="st0" d="M22,5.06c0-0.45-0.36-0.81-0.81-0.81H0.81C0.37,4.25,0,4.61,0,5.06v13.88c0,0.45,0.36,0.81,0.81,0.81h5.64
		L22,6.93V5.06z"/>
</g>
<g>
	<rect id="XMLID_54_" y="6.01" class="st1" width="22" height="2.98"/>
	<path id="XMLID_53_" class="st1" d="M6.09,11.28H2.72c-0.21,0-0.37,0.17-0.37,0.37c0,0.21,0.17,0.37,0.37,0.37h3.37
		c0.21,0,0.37-0.17,0.37-0.37C6.47,11.45,6.3,11.28,6.09,11.28"/>
	<path id="XMLID_52_" class="st1" d="M11.33,11.65c0-0.21-0.17-0.37-0.37-0.37H7.59c-0.21,0-0.37,0.17-0.37,0.37
		c0,0.21,0.17,0.37,0.37,0.37h3.37C11.16,12.02,11.33,11.86,11.33,11.65"/>
	<path id="XMLID_51_" class="st1" d="M3.1,13.14H2.72c-0.21,0-0.37,0.17-0.37,0.37s0.17,0.37,0.37,0.37H3.1
		c0.21,0,0.37-0.17,0.37-0.37C3.47,13.31,3.31,13.14,3.1,13.14"/>
	<path id="XMLID_50_" class="st1" d="M5.34,13.14H4.59c-0.21,0-0.37,0.17-0.37,0.37s0.17,0.37,0.37,0.37h0.75
		c0.21,0,0.37-0.17,0.37-0.37C5.72,13.31,5.55,13.14,5.34,13.14"/>
	<path id="XMLID_49_" class="st1" d="M7.21,13.14H6.84c-0.21,0-0.37,0.17-0.37,0.37s0.17,0.37,0.37,0.37h0.37
		c0.21,0,0.37-0.17,0.37-0.37C7.59,13.31,7.42,13.14,7.21,13.14"/>
	<path id="XMLID_48_" class="st1" d="M9.46,13.14H8.71c-0.21,0-0.37,0.17-0.37,0.37s0.17,0.37,0.37,0.37h0.75
		c0.21,0,0.37-0.17,0.37-0.37C9.83,13.31,9.67,13.14,9.46,13.14"/>
	<path id="XMLID_47_" class="st1" d="M10.69,13.25c-0.07,0.07-0.11,0.17-0.11,0.26c0,0.1,0.04,0.19,0.11,0.26
		c0.07,0.07,0.16,0.11,0.27,0.11c0.1,0,0.19-0.04,0.27-0.11c0.07-0.07,0.11-0.17,0.11-0.26c0-0.1-0.04-0.19-0.11-0.26
		C11.08,13.11,10.83,13.11,10.69,13.25"/>
	<rect id="XMLID_46_" x="13.95" y="14.26" class="st1" width="5.99" height="3.73"/>
</g>
</svg>
